NotoSansBhaiksuki-Regular.ufo
<glyph name="Kha" format="2">
  <advance width="548"/>
  <unicode hex="11C0F"/>
  <outline>
    <contour>
      <point x="337" y="-10" type="curve" smooth="yes"/>
      <point x="424" y="-10"/>
      <point x="508" y="101"/>
      <point x="508" y="184" type="curve" smooth="yes"/>
      <point x="508" y="247"/>
      <point x="469" y="311"/>
      <point x="443" y="345" type="curve"/>
      <point x="350" y="274" type="line"/>
      <point x="399" y="243"/>
      <point x="426" y="198"/>
      <point x="426" y="156" type="curve" smooth="yes"/>
      <point x="426" y="111"/>
      <point x="377" y="60"/>
      <point x="350" y="60" type="curve" smooth="yes"/>
      <point x="298" y="60"/>
      <point x="225" y="155"/>
      <point x="179" y="184" type="curve"/>
      <point x="279" y="266"/>
      <point x="449" y="269"/>
      <point x="449" y="369" type="curve" smooth="yes"/>
      <point x="449" y="427"/>
      <point x="337" y="527"/>
      <point x="287" y="560" type="curve"/>
      <point x="270" y="560" type="line"/>
      <point x="227" y="543"/>
      <point x="81" y="462"/>
      <point x="28" y="375" type="curve"/>
      <point x="68" y="366"/>
      <point x="103" y="353"/>
      <point x="130" y="331" type="curve"/>
      <point x="148" y="421"/>
      <point x="235" y="469"/>
      <point x="269" y="482" type="curve"/>
      <point x="290" y="472"/>
      <point x="357" y="417"/>
      <point x="357" y="379" type="curve" smooth="yes"/>
      <point x="357" y="318"/>
      <point x="152" y="249"/>
      <point x="20" y="146" type="curve"/>
      <point x="34" y="116" type="line"/>
      <point x="58" y="121"/>
      <point x="82" y="130"/>
      <point x="108" y="130" type="curve" smooth="yes"/>
      <point x="122" y="130"/>
      <point x="147" y="117"/>
      <point x="185" y="78" type="curve" smooth="yes"/>
      <point x="224" y="37"/>
      <point x="269" y="-10"/>
    </contour>
  </outline>
</glyph>
<glyph name="Jha" format="2">
  <advance width="620"/>
  <unicode hex="11C16"/>
  <outline>
    <contour>
      <point x="521" y="-71" type="curve"/>
      <point x="548" y="-52"/>
      <point x="575" y="-40"/>
      <point x="600" y="-32" type="curve"/>
      <point x="589" y="20"/>
      <point x="543" y="108"/>
      <point x="508" y="126" type="curve"/>
      <point x="479" y="119"/>
      <point x="454" y="105"/>
      <point x="428" y="87" type="curve"/>
      <point x="438" y="80"/>
      <point x="454" y="59"/>
      <point x="470" y="33" type="curve"/>
      <point x="447" y="22"/>
      <point x="419" y="10"/>
      <point x="398" y="10" type="curve" smooth="yes"/>
      <point x="346" y="10"/>
      <point x="302" y="43"/>
      <point x="283" y="85" type="curve"/>
      <point x="319" y="88"/>
      <point x="436" y="153"/>
      <point x="436" y="202" type="curve" smooth="yes"/>
      <point x="436" y="228"/>
      <point x="403" y="321"/>
      <point x="358" y="388" type="curve"/>
      <point x="504" y="388" type="line"/>
      <point x="504" y="410" type="line"/>
      <point x="310" y="560" type="line"/>
      <point x="288" y="560" type="line"/>
      <point x="83" y="410" type="line"/>
      <point x="83" y="388" type="line"/>
      <point x="270" y="388" type="line"/>
      <point x="306" y="333"/>
      <point x="354" y="238"/>
      <point x="354" y="186" type="curve" smooth="yes"/>
      <point x="354" y="175"/>
      <point x="333" y="155"/>
      <point x="312" y="155" type="curve" smooth="yes"/>
      <point x="210" y="155"/>
      <point x="134" y="243"/>
      <point x="101" y="289" type="curve"/>
      <point x="77" y="256"/>
      <point x="49" y="240"/>
      <point x="20" y="220" type="curve"/>
      <point x="43" y="195"/>
      <point x="109" y="130"/>
      <point x="194" y="100" type="curve"/>
      <point x="208" y="8"/>
      <point x="281" y="-60"/>
      <point x="389" y="-60" type="curve" smooth="yes"/>
      <point x="411" y="-60"/>
      <point x="463" y="-34"/>
      <point x="496" y="-13" type="curve"/>
      <point x="508" y="-38"/>
      <point x="518" y="-60"/>
    </contour>
  </outline>
</glyph>
<glyph name="Dda" format="2">
  <advance width="490"/>
  <unicode hex="11C1A"/>
  <outline>
    <contour>
      <point x="256" y="-10" type="curve" smooth="yes"/>
      <point x="339" y="-10"/>
      <point x="426" y="56"/>
      <point x="470" y="96" type="curve"/>
      <point x="439" y="127" type="line"/>
      <point x="370" y="66"/>
      <point x="325" y="60"/>
      <point x="275" y="60" type="curve" smooth="yes"/>
      <point x="246" y="60"/>
      <point x="201" y="76"/>
      <point x="194" y="126" type="curve"/>
      <point x="239" y="149"/>
      <point x="343" y="213"/>
      <point x="344" y="278" type="curve" smooth="yes"/>
      <point x="344" y="307"/>
      <point x="333" y="340"/>
      <point x="300" y="354" type="curve"/>
      <point x="300" y="360" type="line" smooth="yes"/>
      <point x="300" y="369"/>
      <point x="299" y="378"/>
      <point x="296" y="388" type="curve"/>
      <point x="455" y="388" type="line"/>
      <point x="455" y="410" type="line"/>
      <point x="261" y="560" type="line"/>
      <point x="239" y="560" type="line"/>
      <point x="34" y="410" type="line"/>
      <point x="34" y="388" type="line"/>
      <point x="204" y="388" type="line"/>
      <point x="209" y="380"/>
      <point x="211" y="372"/>
      <point x="211" y="364" type="curve" smooth="yes"/>
      <point x="211" y="360"/>
      <point x="210" y="356"/>
      <point x="210" y="352" type="curve"/>
      <point x="136" y="326"/>
      <point x="48" y="256"/>
      <point x="30" y="244" type="curve"/>
      <point x="49" y="217" type="line"/>
      <point x="132" y="267"/>
      <point x="186" y="292"/>
      <point x="227" y="292" type="curve" smooth="yes"/>
      <point x="249" y="292"/>
      <point x="262" y="286"/>
      <point x="262" y="265" type="curve" smooth="yes"/>
      <point x="262" y="226"/>
      <point x="174" y="151"/>
      <point x="57" y="108" type="curve"/>
      <point x="63" y="70" type="line"/>
      <point x="82" y="74"/>
      <point x="99" y="81"/>
      <point x="116" y="89" type="curve"/>
      <point x="134" y="44"/>
      <point x="169" y="-10"/>
    </contour>
  </outline>
</glyph>
<glyph name="Da" format="2">
  <advance width="507"/>
  <unicode hex="11C1F"/>
  <outline>
    <contour>
      <point x="280" y="-10" type="curve" smooth="yes"/>
      <point x="354" y="-10"/>
      <point x="443" y="62"/>
      <point x="487" y="102" type="curve"/>
      <point x="458" y="135" type="line"/>
      <point x="389" y="74"/>
      <point x="337" y="60"/>
      <point x="295" y="60" type="curve" smooth="yes"/>
      <point x="258" y="60"/>
      <point x="174" y="102"/>
      <point x="167" y="202" type="curve"/>
      <point x="228" y="240"/>
      <point x="316" y="296"/>
      <point x="317" y="348" type="curve" smooth="yes"/>
      <point x="317" y="359"/>
      <point x="313" y="373"/>
      <point x="306" y="388" type="curve"/>
      <point x="467" y="388" type="line"/>
      <point x="467" y="410" type="line"/>
      <point x="273" y="560" type="line"/>
      <point x="251" y="560" type="line"/>
      <point x="46" y="410" type="line"/>
      <point x="46" y="388" type="line"/>
      <point x="210" y="388" type="line"/>
      <point x="228" y="377"/>
      <point x="235" y="363"/>
      <point x="235" y="348" type="curve" smooth="yes"/>
      <point x="235" y="309"/>
      <point x="136" y="226"/>
      <point x="20" y="189" type="curve"/>
      <point x="28" y="144" type="line"/>
      <point x="47" y="148"/>
      <point x="64" y="155"/>
      <point x="81" y="163" type="curve"/>
      <point x="107" y="80"/>
      <point x="171" y="-10"/>
    </contour>
  </outline>
</glyph>
<glyph name="Ba" format="2">
  <advance width="726"/>
  <unicode hex="11C24"/>
  <outline>
    <contour>
      <point x="443" y="-10" type="curve" smooth="yes"/>
      <point x="547" y="-10"/>
      <point x="645" y="127"/>
      <point x="645" y="176" type="curve" smooth="yes"/>
      <point x="645" y="253"/>
      <point x="614" y="340"/>
      <point x="581" y="388" type="curve"/>
      <point x="706" y="388" type="line"/>
      <point x="706" y="408" type="line"/>
      <point x="545" y="560" type="line"/>
      <point x="523" y="560" type="line"/>
      <point x="363" y="411" type="line"/>
      <point x="205" y="560" type="line"/>
      <point x="183" y="560" type="line"/>
      <point x="20" y="408" type="line"/>
      <point x="20" y="388" type="line"/>
      <point x="192" y="388" type="line"/>
      <point x="203" y="364"/>
      <point x="208" y="334"/>
      <point x="208" y="303" type="curve" smooth="yes"/>
      <point x="208" y="237"/>
      <point x="142" y="202"/>
      <point x="98" y="187" type="curve"/>
      <point x="113" y="141" type="line"/>
      <point x="128" y="144"/>
      <point x="143" y="149"/>
      <point x="157" y="154" type="curve"/>
      <point x="204" y="63"/>
      <point x="314" y="-10"/>
    </contour>
    <contour>
      <point x="451" y="60" type="curve" smooth="yes"/>
      <point x="355" y="60"/>
      <point x="270" y="122"/>
      <point x="236" y="202" type="curve"/>
      <point x="270" y="232"/>
      <point x="292" y="268"/>
      <point x="292" y="303" type="curve" smooth="yes"/>
      <point x="292" y="335"/>
      <point x="286" y="364"/>
      <point x="277" y="388" type="curve"/>
      <point x="492" y="388" type="line"/>
      <point x="537" y="337"/>
      <point x="563" y="228"/>
      <point x="563" y="164" type="curve" smooth="yes"/>
      <point x="563" y="121"/>
      <point x="518" y="60"/>
    </contour>
  </outline>
</glyph>
<glyph name="Bha" format="2">
  <advance width="537"/>
  <unicode hex="11C25"/>
  <outline>
    <contour>
      <point x="374" y="-68" type="curve"/>
      <point x="446" y="-33"/>
      <point x="497" y="25"/>
      <point x="497" y="81" type="curve" smooth="yes"/>
      <point x="497" y="172"/>
      <point x="368" y="277"/>
      <point x="315" y="339" type="curve"/>
      <point x="314" y="351"/>
      <point x="311" y="370"/>
      <point x="305" y="388" type="curve"/>
      <point x="475" y="388" type="line"/>
      <point x="475" y="410" type="line"/>
      <point x="281" y="560" type="line"/>
      <point x="259" y="560" type="line"/>
      <point x="54" y="410" type="line"/>
      <point x="54" y="388" type="line"/>
      <point x="217" y="388" type="line"/>
      <point x="228" y="370"/>
      <point x="233" y="347"/>
      <point x="233" y="335" type="curve" smooth="yes"/>
      <point x="233" y="262"/>
      <point x="97" y="219"/>
      <point x="20" y="196" type="curve"/>
      <point x="28" y="158" type="line"/>
      <point x="45" y="160"/>
      <point x="63" y="163"/>
      <point x="83" y="168" type="curve"/>
      <point x="92" y="91"/>
      <point x="157" y="27"/>
      <point x="213" y="27" type="curve" smooth="yes"/>
      <point x="252" y="27"/>
      <point x="376" y="93"/>
      <point x="395" y="149" type="curve"/>
      <point x="408" y="125"/>
      <point x="413" y="105"/>
      <point x="413" y="92" type="curve" smooth="yes"/>
      <point x="413" y="52"/>
      <point x="363" y="26"/>
      <point x="317" y="12" type="curve"/>
      <point x="348" y="-16"/>
      <point x="365" y="-42"/>
    </contour>
    <contour>
      <point x="231" y="97" type="curve" smooth="yes"/>
      <point x="204" y="97"/>
      <point x="164" y="144"/>
      <point x="155" y="191" type="curve"/>
      <point x="206" y="211"/>
      <point x="255" y="238"/>
      <point x="285" y="270" type="curve"/>
      <point x="322" y="225"/>
      <point x="325" y="176"/>
      <point x="325" y="155" type="curve" smooth="yes"/>
      <point x="325" y="113"/>
      <point x="255" y="97"/>
    </contour>
  </outline>
</glyph>
<glyph name="Ra" format="2">
  <advance width="548"/>
  <unicode hex="11C28"/>
  <outline>
    <contour>
      <point x="267" y="-10" type="curve" smooth="yes"/>
      <point x="371" y="-10"/>
      <point x="459" y="127"/>
      <point x="459" y="176" type="curve" smooth="yes"/>
      <point x="459" y="251"/>
      <point x="422" y="339"/>
      <point x="388" y="388" type="curve"/>
      <point x="528" y="388" type="line"/>
      <point x="528" y="410" type="line"/>
      <point x="334" y="560" type="line"/>
      <point x="312" y="560" type="line"/>
      <point x="107" y="410" type="line"/>
      <point x="107" y="388" type="line"/>
      <point x="299" y="388" type="line"/>
      <point x="344" y="335"/>
      <point x="377" y="226"/>
      <point x="377" y="164" type="curve" smooth="yes"/>
      <point x="377" y="121"/>
      <point x="342" y="60"/>
      <point x="275" y="60" type="curve" smooth="yes"/>
      <point x="204" y="60"/>
      <point x="128" y="136"/>
      <point x="102" y="227" type="curve"/>
      <point x="85" y="208"/>
      <point x="58" y="193"/>
      <point x="20" y="182" type="curve"/>
      <point x="58" y="79"/>
      <point x="157" y="-10"/>
    </contour>
  </outline>
</glyph>
<glyph name="AA_vwl" format="2">
  <unicode hex="11C2F"/>
  <outline>
    <contour>
      <point x="344" y="251" type="line"/>
      <point x="368" y="277"/>
      <point x="384" y="309"/>
      <point x="384" y="328" type="curve" smooth="yes"/>
      <point x="384" y="355"/>
      <point x="377" y="377"/>
      <point x="346" y="407" type="curve" smooth="yes"/>
      <point x="185" y="560" type="line"/>
      <point x="163" y="560" type="line"/>
      <point x="0" y="408" type="line"/>
      <point x="0" y="388" type="line"/>
      <point x="285" y="388" type="line"/>
      <point x="293" y="374"/>
      <point x="297" y="359"/>
      <point x="297" y="347" type="curve" smooth="yes"/>
      <point x="297" y="329"/>
      <point x="290" y="299"/>
      <point x="274" y="283" type="curve"/>
    </contour>
  </outline>
</glyph>
<glyph name="I_vwl" format="2">
  <unicode hex="11C30"/>
  <outline>
    <contour>
      <point x="-200" y="620" type="line"/>
      <point x="211" y="620" type="line"/>
      <point x="211" y="642" type="line"/>
      <point x="15" y="809" type="line"/>
      <point x="-5" y="809" type="line"/>
      <point x="-200" y="642" type="line"/>
    </contour>
    <contour>
      <point x="-71" y="673" type="line"/>
      <point x="-71" y="680" type="line"/>
      <point x="2" y="742" type="line"/>
      <point x="10" y="742" type="line"/>
      <point x="82" y="680" type="line"/>
      <point x="82" y="673" type="line"/>
    </contour>
  </outline>
</glyph>
<glyph name="VocR" format="2">
  <unicode hex="11C34"/>
  <outline>
    <contour>
      <point x="-225" y="-220" type="curve" smooth="yes"/>
      <point x="-117" y="-220"/>
      <point x="-30" y="-106"/>
      <point x="-30" y="-59" type="curve" smooth="yes"/>
      <point x="-30" y="-37"/>
      <point x="-33" y="-6"/>
      <point x="-36" y="14" type="curve"/>
      <point x="-115" y="0" type="line"/>
      <point x="-111" y="-21"/>
      <point x="-108" y="-51"/>
      <point x="-108" y="-62" type="curve" smooth="yes"/>
      <point x="-108" y="-112"/>
      <point x="-156" y="-155"/>
      <point x="-224" y="-155" type="curve" smooth="yes"/>
      <point x="-320" y="-155"/>
      <point x="-381" y="-52"/>
      <point x="-381" y="53" type="curve" smooth="yes"/>
      <point x="-381" y="84"/>
      <point x="-379" y="108"/>
      <point x="-366" y="143" type="curve"/>
      <point x="-391" y="153"/>
      <point x="-421" y="167"/>
      <point x="-440" y="184" type="curve"/>
      <point x="-450" y="149"/>
      <point x="-455" y="107"/>
      <point x="-455" y="71" type="curve" smooth="yes"/>
      <point x="-455" y="-63"/>
      <point x="-379" y="-220"/>
    </contour>
  </outline>
</glyph>
<glyph name="Anusvara" format="2">
  <unicode hex="11C3D"/>
  <outline>
    <contour>
      <point x="-28" y="610" type="curve" smooth="yes"/>
      <point x="47" y="610"/>
      <point x="142" y="702"/>
      <point x="142" y="757" type="curve" smooth="yes"/>
      <point x="142" y="818"/>
      <point x="88" y="871"/>
      <point x="22" y="871" type="curve" smooth="yes"/>
      <point x="-41" y="871"/>
      <point x="-154" y="781"/>
      <point x="-154" y="717" type="curve" smooth="yes"/>
      <point x="-154" y="649"/>
      <point x="-81" y="610"/>
    </contour>
    <contour>
      <point x="-18" y="675" type="curve" smooth="yes"/>
      <point x="-56" y="675"/>
      <point x="-85" y="693"/>
      <point x="-85" y="721" type="curve" smooth="yes"/>
      <point x="-85" y="754"/>
      <point x="-21" y="806"/>
      <point x="12" y="806" type="curve" smooth="yes"/>
      <point x="49" y="806"/>
      <point x="72" y="771"/>
      <point x="72" y="750" type="curve" smooth="yes"/>
      <point x="72" y="727"/>
      <point x="26" y="675"/>
    </contour>
  </outline>
</glyph>
<glyph name="Virama" format="2">
  <unicode hex="11C3F"/>
  <outline>
    <contour>
      <point x="-165" y="-244" type="curve"/>
      <point x="-70" y="-244" type="line"/>
      <point x="-122" y="-168"/>
      <point x="-167" y="-113"/>
      <point x="-238" y="-50" type="curve"/>
      <point x="-258" y="-50" type="line"/>
      <point x="-328" y="-62"/>
      <point x="-398" y="-77"/>
      <point x="-468" y="-97" type="curve"/>
      <point x="-462" y="-135" type="line"/>
      <point x="-400" y="-126"/>
      <point x="-340" y="-122"/>
      <point x="-280" y="-121" type="curve"/>
      <point x="-226" y="-163"/>
      <point x="-202" y="-197"/>
    </contour>
  </outline>
</glyph>
<glyph name="AA_vwl.alt" format="2">
  <outline>
    <contour>
      <point x="86" y="251" type="line"/>
      <point x="110" y="277"/>
      <point x="126" y="309"/>
      <point x="126" y="330" type="curve" smooth="yes"/>
      <point x="126" y="357"/>
      <point x="118" y="377"/>
      <point x="85" y="408" type="curve" smooth="yes"/>
      <point x="36" y="454" type="line"/>
      <point x="-1" y="419" type="line"/>
      <point x="26" y="399"/>
      <point x="39" y="370"/>
      <point x="39" y="347" type="curve" smooth="yes"/>
      <point x="39" y="329"/>
      <point x="32" y="299"/>
      <point x="16" y="283" type="curve"/>
    </contour>
  </outline>
</glyph>
<glyph name="Anusvara.alt" format="2">
  <outline>
    <contour>
      <point x="-18" y="610" type="curve" smooth="yes"/>
      <point x="58" y="610"/>
      <point x="120" y="688"/>
      <point x="120" y="736" type="curve" smooth="yes"/>
      <point x="120" y="789"/>
      <point x="75" y="834"/>
      <point x="22" y="834" type="curve" smooth="yes"/>
      <point x="-44" y="834"/>
      <point x="-120" y="757"/>
      <point x="-120" y="703" type="curve" smooth="yes"/>
      <point x="-120" y="644"/>
      <point x="-62" y="610"/>
    </contour>
  </outline>
</glyph>
<glyph name="Bda" format="2">
  <advance width="726"/>
  <outline>
    <contour>
      <point x="396" y="-221" type="curve" smooth="yes"/>
      <point x="470" y="-221"/>
      <point x="559" y="-149"/>
      <point x="603" y="-109" type="curve"/>
      <point x="574" y="-76" type="line"/>
      <point x="505" y="-137"/>
      <point x="453" y="-151"/>
      <point x="411" y="-151" type="curve" smooth="yes"/>
      <point x="374" y="-151"/>
      <point x="290" y="-109"/>
      <point x="283" y="-9" type="curve"/>
      <point x="306" y="1"/>
      <point x="333" y="14"/>
      <point x="358" y="30" type="curve"/>
      <point x="300" y="57" type="line"/>
      <point x="260" y="27"/>
      <point x="201" y="-1"/>
      <point x="136" y="-22" type="curve"/>
      <point x="144" y="-67" type="line"/>
      <point x="163" y="-63"/>
      <point x="180" y="-56"/>
      <point x="197" y="-48" type="curve"/>
      <point x="223" y="-131"/>
      <point x="287" y="-221"/>
    </contour>
    <component base="Ba"/>
  </outline>
</glyph>
<glyph name="Ddr" format="2">
  <advance width="694"/>
  <outline>
    <contour>
      <point x="361" y="-240" type="curve" smooth="yes"/>
      <point x="481" y="-240"/>
      <point x="554" y="-159"/>
      <point x="554" y="-93" type="curve" smooth="yes"/>
      <point x="554" y="-62"/>
      <point x="538" y="-40"/>
      <point x="523" y="-25" type="curve"/>
      <point x="456" y="-34" type="line"/>
      <point x="470" y="-43"/>
      <point x="483" y="-62"/>
      <point x="483" y="-86" type="curve" smooth="yes"/>
      <point x="483" y="-130"/>
      <point x="438" y="-170"/>
      <point x="368" y="-170" type="curve" smooth="yes"/>
      <point x="279" y="-170"/>
      <point x="108" y="-105"/>
      <point x="108" y="221" type="curve" smooth="yes"/>
      <point x="108" y="331"/>
      <point x="120" y="423"/>
      <point x="167" y="465" type="curve"/>
      <point x="131" y="484"/>
      <point x="99" y="505"/>
      <point x="74" y="530" type="curve"/>
      <point x="56" y="495"/>
      <point x="20" y="393"/>
      <point x="20" y="248" type="curve" smooth="yes"/>
      <point x="20" y="-75"/>
      <point x="180" y="-240"/>
    </contour>
    <component base="Dada" xOffset="180"/>
  </outline>
</glyph>
<glyph name="Dvi" format="2">
  <advance width="507"/>
  <outline>
    <contour>
      <point x="183" y="432" type="line"/>
      <point x="336" y="432" type="line"/>
      <point x="336" y="439" type="line"/>
      <point x="264" y="501" type="line"/>
      <point x="256" y="501" type="line"/>
      <point x="183" y="439" type="line"/>
    </contour>
    <component base="Dva"/>
  </outline>
</glyph>
<glyph name="E_vwl.alt" format="2">
  <outline>
    <contour>
      <point x="5" y="398" type="line"/>
      <point x="5" y="421" type="line"/>
      <point x="-58" y="523"/>
      <point x="-151" y="622"/>
      <point x="-259" y="720" type="curve"/>
      <point x="-281" y="720" type="line"/>
      <point x="-473" y="572" type="line"/>
      <point x="-455" y="551" type="line"/>
      <point x="-290" y="660" type="line"/>
      <point x="-198" y="577"/>
      <point x="-129" y="506"/>
      <point x="-83" y="438" type="curve"/>
    </contour>
  </outline>
</glyph>
<glyph name="E_vwl.alt2" format="2">
  <outline>
    <contour>
      <point x="57" y="398" type="line"/>
      <point x="57" y="421" type="line"/>
      <point x="-259" y="720" type="line"/>
      <point x="-281" y="720" type="line"/>
      <point x="-457" y="583" type="line"/>
      <point x="-439" y="562" type="line"/>
      <point x="-290" y="660" type="line"/>
      <point x="-198" y="577"/>
      <point x="-99" y="486"/>
      <point x="-53" y="428" type="curve"/>
    </contour>
  </outline>
</glyph>
<glyph name="Gnaa" format="2">
  <advance width="726"/>
  <outline>
    <contour>
      <point x="538" y="143" type="curve"/>
      <point x="562" y="147"/>
      <point x="607" y="152"/>
      <point x="635" y="153" type="curve"/>
      <point x="623" y="216"/>
      <point x="604" y="266"/>
      <point x="570" y="358" type="curve"/>
      <point x="504" y="358" type="line"/>
      <point x="535" y="260"/>
      <point x="532" y="188"/>
    </contour>
    <component base="Gna"/>
  </outline>
</glyph>
<glyph name="Hrr" format="2">
  <advance width="800"/>
  <outline>
    <contour>
      <point x="280" y="-114" type="curve" smooth="yes"/>
      <point x="406" y="-114"/>
      <point x="474" y="-23"/>
      <point x="474" y="69" type="curve" smooth="yes"/>
      <point x="474" y="88"/>
      <point x="471" y="119"/>
      <point x="459" y="144" type="curve"/>
      <point x="383" y="132" type="line"/>
      <point x="396" y="108"/>
      <point x="403" y="84"/>
      <point x="403" y="63" type="curve" smooth="yes"/>
      <point x="403" y="15"/>
      <point x="365" y="-44"/>
      <point x="280" y="-44" type="curve" smooth="yes"/>
      <point x="188" y="-44"/>
      <point x="108" y="11"/>
      <point x="108" y="277" type="curve" smooth="yes"/>
      <point x="108" y="387"/>
      <point x="140" y="479"/>
      <point x="187" y="521" type="curve"/>
      <point x="151" y="540"/>
      <point x="119" y="561"/>
      <point x="94" y="586" type="curve"/>
      <point x="75" y="550"/>
      <point x="20" y="449"/>
      <point x="20" y="284" type="curve" smooth="yes"/>
      <point x="20" y="41"/>
      <point x="115" y="-114"/>
    </contour>
    <component base="Ha" xOffset="215"/>
  </outline>
</glyph>
<glyph name="Khaa" format="2">
  <advance width="754"/>
  <outline>
    <contour>
      <point x="630" y="-10" type="curve"/>
      <point x="654" y="-6"/>
      <point x="699" y="-1"/>
      <point x="727" y="0" type="curve"/>
      <point x="720" y="74"/>
      <point x="627" y="367"/>
      <point x="604" y="410" type="curve"/>
      <point x="501" y="407"/>
      <point x="422" y="399"/>
      <point x="385" y="383" type="curve"/>
      <point x="389" y="302" type="line"/>
      <point x="403" y="322"/>
      <point x="470" y="340"/>
      <point x="547" y="352" type="curve"/>
      <point x="579" y="255"/>
      <point x="630" y="34"/>
    </contour>
    <component base="Kha"/>
  </outline>
</glyph>
<glyph name="Kssmi" format="2">
  <advance width="618"/>
  <outline>
    <contour>
      <point x="202" y="-250" type="curve" smooth="yes"/>
      <point x="276" y="-250"/>
      <point x="403" y="-187"/>
      <point x="403" y="-111" type="curve" smooth="yes"/>
      <point x="403" y="-106"/>
      <point x="403" y="-100"/>
      <point x="402" y="-95" type="curve"/>
      <point x="411" y="-96"/>
      <point x="421" y="-97"/>
      <point x="430" y="-97" type="curve" smooth="yes"/>
      <point x="519" y="-97"/>
      <point x="598" y="-5"/>
      <point x="598" y="40" type="curve" smooth="yes"/>
      <point x="598" y="62"/>
      <point x="593" y="85"/>
      <point x="586" y="108" type="curve"/>
      <point x="508" y="80" type="line"/>
      <point x="513" y="60"/>
      <point x="516" y="41"/>
      <point x="516" y="25" type="curve" smooth="yes"/>
      <point x="516" y="-20"/>
      <point x="468" y="-27"/>
      <point x="444" y="-27" type="curve" smooth="yes"/>
      <point x="364" y="-27"/>
      <point x="306" y="49"/>
      <point x="212" y="49" type="curve" smooth="yes"/>
      <point x="152" y="49"/>
      <point x="44" y="-45"/>
      <point x="44" y="-98" type="curve" smooth="yes"/>
      <point x="44" y="-173"/>
      <point x="143" y="-250"/>
    </contour>
    <contour>
      <point x="219" y="-180" type="curve" smooth="yes"/>
      <point x="187" y="-180"/>
      <point x="126" y="-130"/>
      <point x="126" y="-87" type="curve" smooth="yes"/>
      <point x="126" y="-72"/>
      <point x="161" y="-21"/>
      <point x="205" y="-21" type="curve" smooth="yes"/>
      <point x="242" y="-21"/>
      <point x="321" y="-47"/>
      <point x="321" y="-117" type="curve" smooth="yes"/>
      <point x="321" y="-169"/>
      <point x="251" y="-180"/>
    </contour>
    <component base="Kssi" xOffset="-10"/>
  </outline>
</glyph>
<glyph name="Mrr" format="2">
  <advance width="1033"/>
  <outline>
    <contour>
      <point x="401" y="-184" type="curve" smooth="yes"/>
      <point x="521" y="-184"/>
      <point x="594" y="-103"/>
      <point x="594" y="-37" type="curve" smooth="yes"/>
      <point x="594" y="-6"/>
      <point x="578" y="16"/>
      <point x="563" y="31" type="curve"/>
      <point x="496" y="22" type="line"/>
      <point x="510" y="13"/>
      <point x="523" y="-6"/>
      <point x="523" y="-30" type="curve" smooth="yes"/>
      <point x="523" y="-74"/>
      <point x="478" y="-114"/>
      <point x="408" y="-114" type="curve" smooth="yes"/>
      <point x="319" y="-114"/>
      <point x="108" y="-49"/>
      <point x="108" y="277" type="curve" smooth="yes"/>
      <point x="108" y="387"/>
      <point x="120" y="479"/>
      <point x="167" y="521" type="curve"/>
      <point x="131" y="540"/>
      <point x="99" y="561"/>
      <point x="74" y="586" type="curve"/>
      <point x="56" y="551"/>
      <point x="20" y="449"/>
      <point x="20" y="304" type="curve" smooth="yes"/>
      <point x="20" y="-19"/>
      <point x="220" y="-184"/>
    </contour>
    <component base="Ma" xOffset="297"/>
  </outline>
</glyph>
<glyph name="Ngni" format="2">
  <advance width="1140"/>
  <outline>
    <contour>
      <point x="144" y="-196" type="curve"/>
      <point x="253" y="-190"/>
      <point x="379" y="-121"/>
      <point x="379" y="-12" type="curve" smooth="yes"/>
      <point x="379" y="70"/>
      <point x="313" y="138"/>
      <point x="209" y="138" type="curve" smooth="yes"/>
      <point x="150" y="138"/>
      <point x="101" y="116"/>
      <point x="69" y="85" type="curve"/>
      <point x="84" y="26" type="line"/>
      <point x="106" y="45"/>
      <point x="148" y="74"/>
      <point x="201" y="74" type="curve" smooth="yes"/>
      <point x="243" y="74"/>
      <point x="296" y="54"/>
      <point x="296" y="1" type="curve" smooth="yes"/>
      <point x="296" y="-82"/>
      <point x="149" y="-111"/>
      <point x="114" y="-101" type="curve"/>
      <point x="135" y="-136"/>
      <point x="144" y="-167"/>
    </contour>
    <component base="Ngi" xOffset="22"/>
  </outline>
</glyph>
<glyph name="O_vwl.alt" format="2">
  <outline>
    <contour>
      <point x="-353" y="522" type="curve"/>
      <point x="-266" y="522" type="line"/>
      <point x="-284" y="560"/>
      <point x="-326" y="613"/>
      <point x="-326" y="629" type="curve" smooth="yes"/>
      <point x="-326" y="641"/>
      <point x="-288" y="662"/>
      <point x="-252" y="675" type="curve"/>
      <point x="-225" y="640"/>
      <point x="-170" y="582"/>
      <point x="-102" y="582" type="curve" smooth="yes"/>
      <point x="-33" y="582"/>
      <point x="47" y="647"/>
      <point x="102" y="719" type="curve"/>
      <point x="80" y="731" type="line"/>
      <point x="-9" y="659"/>
      <point x="-51" y="652"/>
      <point x="-89" y="652" type="curve" smooth="yes"/>
      <point x="-157" y="652"/>
      <point x="-198" y="737"/>
      <point x="-218" y="737" type="curve" smooth="yes"/>
      <point x="-257" y="737"/>
      <point x="-410" y="647"/>
      <point x="-410" y="616" type="curve" smooth="yes"/>
      <point x="-410" y="596"/>
      <point x="-376" y="552"/>
    </contour>
  </outline>
</glyph>
<glyph name="Pa.blw" format="2">
  <outline>
    <contour>
      <point x="87" y="-251" type="curve"/>
      <point x="114" y="-232"/>
      <point x="141" y="-220"/>
      <point x="166" y="-212" type="curve"/>
      <point x="155" y="-160"/>
      <point x="109" y="-72"/>
      <point x="74" y="-54" type="curve"/>
      <point x="45" y="-61"/>
      <point x="20" y="-75"/>
      <point x="-6" y="-93" type="curve"/>
      <point x="4" y="-99"/>
      <point x="20" y="-121"/>
      <point x="36" y="-146" type="curve"/>
      <point x="13" y="-158"/>
      <point x="-14" y="-170"/>
      <point x="-36" y="-170" type="curve" smooth="yes"/>
      <point x="-97" y="-170"/>
      <point x="-138" y="-145"/>
      <point x="-152" y="-56" type="curve"/>
      <point x="-120" y="-33"/>
      <point x="-88" y="-8"/>
      <point x="-64" y="12" type="curve"/>
      <point x="-96" y="55" type="line"/>
      <point x="-119" y="33"/>
      <point x="-252" y="-60"/>
      <point x="-292" y="-80" type="curve"/>
      <point x="-265" y="-126" type="line"/>
      <point x="-255" y="-122"/>
      <point x="-243" y="-116"/>
      <point x="-228" y="-107" type="curve"/>
      <point x="-204" y="-194"/>
      <point x="-140" y="-240"/>
      <point x="-45" y="-240" type="curve" smooth="yes"/>
      <point x="-23" y="-240"/>
      <point x="29" y="-214"/>
      <point x="62" y="-193" type="curve"/>
      <point x="74" y="-218"/>
      <point x="84" y="-240"/>
    </contour>
  </outline>
</glyph>
<glyph name="Prai" format="2">
  <advance width="998"/>
  <outline>
    <contour>
      <point x="431" y="-185" type="curve" smooth="yes"/>
      <point x="561" y="-185"/>
      <point x="632" y="-121"/>
      <point x="634" y="-60" type="curve" smooth="yes"/>
      <point x="635" y="-20"/>
      <point x="608" y="24"/>
      <point x="559" y="56" type="curve"/>
      <point x="533" y="34"/>
      <point x="505" y="15"/>
      <point x="473" y="-3" type="curve"/>
      <point x="501" y="-41" type="line"/>
      <point x="523" y="-32"/>
      <point x="563" y="-27"/>
      <point x="563" y="-57" type="curve" smooth="yes"/>
      <point x="563" y="-87"/>
      <point x="510" y="-115"/>
      <point x="436" y="-115" type="curve" smooth="yes"/>
      <point x="291" y="-115"/>
      <point x="128" y="0"/>
      <point x="128" y="296" type="curve" smooth="yes"/>
      <point x="128" y="406"/>
      <point x="140" y="488"/>
      <point x="187" y="530" type="curve"/>
      <point x="151" y="549"/>
      <point x="119" y="570"/>
      <point x="94" y="595" type="curve"/>
      <point x="75" y="579"/>
      <point x="40" y="468"/>
      <point x="40" y="323" type="curve" smooth="yes"/>
      <point x="40" y="30"/>
      <point x="200" y="-185"/>
    </contour>
    <component base="Pai" xOffset="200"/>
  </outline>
</glyph>
<glyph name="Pri" format="2">
  <advance width="721"/>
  <outline>
    <contour>
      <point x="341" y="-175" type="curve" smooth="yes"/>
      <point x="411" y="-175"/>
      <point x="472" y="-121"/>
      <point x="474" y="-60" type="curve" smooth="yes"/>
      <point x="475" y="-20"/>
      <point x="448" y="24"/>
      <point x="399" y="56" type="curve"/>
      <point x="373" y="34"/>
      <point x="345" y="15"/>
      <point x="313" y="-3" type="curve"/>
      <point x="341" y="-41" type="line"/>
      <point x="363" y="-32"/>
      <point x="403" y="-26"/>
      <point x="403" y="-59" type="curve" smooth="yes"/>
      <point x="403" y="-86"/>
      <point x="371" y="-105"/>
      <point x="345" y="-105" type="curve" smooth="yes"/>
      <point x="252" y="-105"/>
      <point x="98" y="0"/>
      <point x="98" y="296" type="curve" smooth="yes"/>
      <point x="98" y="406"/>
      <point x="110" y="488"/>
      <point x="157" y="530" type="curve"/>
      <point x="121" y="549"/>
      <point x="89" y="570"/>
      <point x="64" y="595" type="curve"/>
      <point x="45" y="579"/>
      <point x="10" y="468"/>
      <point x="10" y="323" type="curve" smooth="yes"/>
      <point x="10" y="30"/>
      <point x="150" y="-175"/>
    </contour>
    <component base="Pi_bhks" xOffset="170"/>
  </outline>
</glyph>
<glyph name="Repha" format="2">
  <outline>
    <contour>
      <point x="38" y="490" type="line"/>
      <point x="44" y="508"/>
      <point x="47" y="531"/>
      <point x="47" y="544" type="curve" smooth="yes"/>
      <point x="47" y="556"/>
      <point x="44" y="568"/>
      <point x="39" y="580" type="curve"/>
      <point x="173" y="580" type="line"/>
      <point x="173" y="600" type="line"/>
      <point x="12" y="742" type="line"/>
      <point x="-10" y="742" type="line"/>
      <point x="-173" y="600" type="line"/>
      <point x="-173" y="580" type="line"/>
      <point x="-38" y="580" type="line"/>
      <point x="-33" y="569"/>
      <point x="-31" y="558"/>
      <point x="-31" y="548" type="curve" smooth="yes"/>
      <point x="-31" y="536"/>
      <point x="-36" y="516"/>
      <point x="-43" y="499" type="curve"/>
    </contour>
  </outline>
</glyph>
<glyph name="Rnnnnaa" format="2">
  <advance width="1379"/>
  <outline>
    <contour>
      <point x="652" y="510" type="line"/>
      <point x="998" y="510" type="line"/>
      <point x="998" y="530" type="line"/>
      <point x="837" y="682" type="line"/>
      <point x="815" y="682" type="line"/>
      <point x="652" y="530" type="line"/>
    </contour>
    <component base="AA_vwl" xOffset="975" yOffset="122"/>
    <component base="Nnnna"/>
  </outline>
</glyph>
<glyph name="Rsse" format="2">
  <advance width="878"/>
  <outline>
    <contour>
      <point x="478" y="508" type="curve"/>
      <point x="571" y="511" type="line"/>
      <point x="582" y="527"/>
      <point x="588" y="573"/>
      <point x="588" y="590" type="curve" smooth="yes"/>
      <point x="588" y="651"/>
      <point x="510" y="748"/>
      <point x="469" y="786" type="curve"/>
      <point x="451" y="786" type="line"/>
      <point x="323" y="723"/>
      <point x="251" y="659"/>
      <point x="251" y="628" type="curve" smooth="yes"/>
      <point x="251" y="608"/>
      <point x="271" y="576"/>
      <point x="298" y="551" type="curve"/>
      <point x="323" y="583"/>
      <point x="351" y="602"/>
      <point x="379" y="615" type="curve"/>
      <point x="365" y="625"/>
      <point x="355" y="636"/>
      <point x="355" y="649" type="curve" smooth="yes"/>
      <point x="355" y="662"/>
      <point x="391" y="702"/>
      <point x="435" y="722" type="curve"/>
      <point x="468" y="693"/>
      <point x="506" y="628"/>
      <point x="506" y="594" type="curve" smooth="yes"/>
      <point x="506" y="580"/>
      <point x="499" y="534"/>
    </contour>
    <contour>
      <point x="512" y="566" type="line"/>
      <point x="858" y="566" type="line"/>
      <point x="858" y="586" type="line"/>
      <point x="697" y="738" type="line"/>
      <point x="675" y="738" type="line"/>
      <point x="512" y="586" type="line"/>
    </contour>
    <component base="Ssa"/>
  </outline>
</glyph>
<glyph name="Rvyu" format="2">
  <advance width="543"/>
  <outline>
    <contour>
      <point x="334" y="467" type="line"/>
      <point x="334" y="557" type="line"/>
      <point x="468" y="557" type="line"/>
      <point x="468" y="577" type="line"/>
      <point x="307" y="719" type="line"/>
      <point x="285" y="719" type="line"/>
      <point x="122" y="577" type="line"/>
      <point x="122" y="557" type="line"/>
      <point x="257" y="557" type="line"/>
      <point x="257" y="476" type="line"/>
    </contour>
    <component base="Va"/>
    <component base="Ya.blw" xOffset="551" yOffset="-6"/>
    <component base="U_vwl" xOffset="350" yOffset="-190"/>
  </outline>
</glyph>
<glyph name="Shca" format="2">
  <advance width="877"/>
  <outline>
    <contour>
      <point x="526" y="340" type="line"/>
      <point x="837" y="340" type="line"/>
      <point x="837" y="360" type="line"/>
      <point x="676" y="512" type="line"/>
      <point x="654" y="512" type="line"/>
      <point x="507" y="374" type="line"/>
    </contour>
    <component base="Shc"/>
  </outline>
</glyph>
<glyph name="Shruu" format="2">
  <advance width="987"/>
  <outline>
    <contour>
      <point x="411" y="-174" type="curve" smooth="yes"/>
      <point x="531" y="-174"/>
      <point x="604" y="-93"/>
      <point x="604" y="-27" type="curve" smooth="yes"/>
      <point x="604" y="4"/>
      <point x="588" y="26"/>
      <point x="573" y="41" type="curve"/>
      <point x="506" y="32" type="line"/>
      <point x="520" y="23"/>
      <point x="533" y="4"/>
      <point x="533" y="-20" type="curve" smooth="yes"/>
      <point x="533" y="-64"/>
      <point x="488" y="-104"/>
      <point x="418" y="-104" type="curve" smooth="yes"/>
      <point x="329" y="-104"/>
      <point x="118" y="-49"/>
      <point x="118" y="277" type="curve" smooth="yes"/>
      <point x="118" y="387"/>
      <point x="130" y="479"/>
      <point x="177" y="521" type="curve"/>
      <point x="141" y="540"/>
      <point x="109" y="561"/>
      <point x="84" y="586" type="curve"/>
      <point x="66" y="551"/>
      <point x="30" y="449"/>
      <point x="30" y="304" type="curve" smooth="yes"/>
      <point x="30" y="-19"/>
      <point x="230" y="-174"/>
    </contour>
    <component base="Sha" xOffset="130"/>
    <component base="UU_vwl.alt" xOffset="550" yOffset="-136"/>
  </outline>
</glyph>
<glyph name="Sni" format="2">
  <advance width="811"/>
  <outline>
    <contour>
      <point x="393" y="-254" type="curve"/>
      <point x="502" y="-248"/>
      <point x="628" y="-179"/>
      <point x="628" y="-70" type="curve" smooth="yes"/>
      <point x="628" y="12"/>
      <point x="562" y="80"/>
      <point x="458" y="80" type="curve" smooth="yes"/>
      <point x="399" y="80"/>
      <point x="350" y="58"/>
      <point x="318" y="27" type="curve"/>
      <point x="333" y="-32" type="line"/>
      <point x="355" y="-13"/>
      <point x="397" y="16"/>
      <point x="450" y="16" type="curve" smooth="yes"/>
      <point x="492" y="16"/>
      <point x="545" y="-4"/>
      <point x="545" y="-57" type="curve" smooth="yes"/>
      <point x="545" y="-140"/>
      <point x="398" y="-169"/>
      <point x="363" y="-159" type="curve"/>
      <point x="384" y="-194"/>
      <point x="393" y="-225"/>
    </contour>
    <component base="Si.above" xOffset="7"/>
  </outline>
</glyph>
<glyph name="Sra" format="2">
  <advance width="936"/>
  <outline>
    <contour>
      <point x="431" y="-204" type="curve" smooth="yes"/>
      <point x="591" y="-204"/>
      <point x="662" y="-130"/>
      <point x="664" y="-69" type="curve" smooth="yes"/>
      <point x="665" y="-29"/>
      <point x="638" y="15"/>
      <point x="589" y="47" type="curve"/>
      <point x="563" y="25"/>
      <point x="535" y="6"/>
      <point x="503" y="-12" type="curve"/>
      <point x="531" y="-50" type="line"/>
      <point x="553" y="-41"/>
      <point x="593" y="-35"/>
      <point x="593" y="-68" type="curve" smooth="yes"/>
      <point x="593" y="-95"/>
      <point x="551" y="-134"/>
      <point x="435" y="-134" type="curve" smooth="yes"/>
      <point x="322" y="-134"/>
      <point x="108" y="-49"/>
      <point x="108" y="277" type="curve" smooth="yes"/>
      <point x="108" y="387"/>
      <point x="120" y="479"/>
      <point x="167" y="521" type="curve"/>
      <point x="131" y="540"/>
      <point x="99" y="561"/>
      <point x="74" y="586" type="curve"/>
      <point x="55" y="570"/>
      <point x="20" y="449"/>
      <point x="20" y="304" type="curve" smooth="yes"/>
      <point x="20" y="-19"/>
      <point x="220" y="-204"/>
    </contour>
    <component base="Sa" xOffset="160"/>
  </outline>
</glyph>
<glyph name="Tata" format="2">
  <advance width="600"/>
  <outline>
    <contour>
      <point x="349" y="-170" type="curve"/>
      <point x="435" y="-145"/>
      <point x="560" y="-82"/>
      <point x="560" y="-16" type="curve" smooth="yes"/>
      <point x="560" y="67"/>
      <point x="369" y="319"/>
      <point x="301" y="388" type="curve"/>
      <point x="473" y="388" type="line"/>
      <point x="473" y="410" type="line"/>
      <point x="279" y="560" type="line"/>
      <point x="257" y="560" type="line"/>
      <point x="52" y="410" type="line"/>
      <point x="52" y="388" type="line"/>
      <point x="222" y="388" type="line"/>
      <point x="158" y="349"/>
      <point x="40" y="268"/>
      <point x="40" y="234" type="curve" smooth="yes"/>
      <point x="40" y="203"/>
      <point x="59" y="168"/>
      <point x="106" y="130" type="curve"/>
      <point x="130" y="159"/>
      <point x="158" y="183"/>
      <point x="192" y="202" type="curve"/>
      <point x="157" y="218"/>
      <point x="144" y="234"/>
      <point x="144" y="256" type="curve" smooth="yes"/>
      <point x="144" y="284"/>
      <point x="225" y="341"/>
      <point x="252" y="341" type="curve" smooth="yes"/>
      <point x="264" y="341"/>
      <point x="298" y="285"/>
      <point x="332" y="234" type="curve"/>
      <point x="266" y="193"/>
      <point x="145" y="110"/>
      <point x="145" y="77" type="curve" smooth="yes"/>
      <point x="145" y="46"/>
      <point x="164" y="11"/>
      <point x="211" y="-27" type="curve"/>
      <point x="235" y="2"/>
      <point x="263" y="26"/>
      <point x="297" y="45" type="curve"/>
      <point x="262" y="61"/>
      <point x="249" y="77"/>
      <point x="249" y="99" type="curve" smooth="yes"/>
      <point x="249" y="127"/>
      <point x="330" y="184"/>
      <point x="357" y="184" type="curve" smooth="yes"/>
      <point x="377" y="184"/>
      <point x="478" y="15"/>
      <point x="478" y="-1" type="curve" smooth="yes"/>
      <point x="478" y="-32"/>
      <point x="355" y="-81"/>
      <point x="305" y="-89" type="curve"/>
      <point x="317" y="-104"/>
      <point x="342" y="-147"/>
    </contour>
  </outline>
</glyph>
<glyph name="U_vwl.alt" format="2">
  <outline>
    <contour>
      <point x="-214" y="-240" type="curve" smooth="yes"/>
      <point x="-131" y="-240"/>
      <point x="-65" y="-187"/>
      <point x="-19" y="-147" type="curve"/>
      <point x="-43" y="-124" type="line"/>
      <point x="-97" y="-167"/>
      <point x="-150" y="-175"/>
      <point x="-197" y="-175" type="curve" smooth="yes"/>
      <point x="-219" y="-175"/>
      <point x="-250" y="-162"/>
      <point x="-266" y="-133" type="curve"/>
      <point x="-114" y="-99"/>
      <point x="-53" y="-55"/>
      <point x="-38" y="18" type="curve"/>
      <point x="-136" y="6" type="line"/>
      <point x="-136" y="-57"/>
      <point x="-297" y="-104"/>
      <point x="-421" y="-122" type="curve"/>
      <point x="-415" y="-160" type="line"/>
      <point x="-350" y="-150" type="line"/>
      <point x="-331" y="-193"/>
      <point x="-295" y="-240"/>
    </contour>
  </outline>
</glyph>
<glyph name="Vlu" format="2">
  <advance width="570"/>
  <outline>
    <contour>
      <point x="381" y="-365" type="curve"/>
      <point x="400" y="-365" type="line"/>
      <point x="433" y="-351"/>
      <point x="471" y="-243"/>
      <point x="480" y="-144" type="curve" smooth="yes"/>
      <point x="489" y="-45"/>
      <point x="480" y="8"/>
      <point x="475" y="103" type="curve"/>
      <point x="398" y="54" type="line"/>
      <point x="412" y="-12"/>
      <point x="410" y="-122"/>
      <point x="347" y="-122" type="curve" smooth="yes"/>
      <point x="284" y="-122"/>
      <point x="262" y="-11"/>
      <point x="152" y="-11" type="curve" smooth="yes"/>
      <point x="86" y="-11"/>
      <point x="20" y="-50"/>
      <point x="20" y="-123" type="curve" smooth="yes"/>
      <point x="20" y="-183"/>
      <point x="68" y="-228"/>
      <point x="101" y="-241" type="curve"/>
      <point x="146" y="-198" type="line"/>
      <point x="131" y="-189"/>
      <point x="104" y="-168"/>
      <point x="104" y="-129" type="curve" smooth="yes"/>
      <point x="104" y="-92"/>
      <point x="130" y="-76"/>
      <point x="159" y="-76" type="curve" smooth="yes"/>
      <point x="236" y="-76"/>
      <point x="254" y="-190"/>
      <point x="347" y="-190" type="curve" smooth="yes"/>
      <point x="369" y="-190"/>
      <point x="388" y="-184"/>
      <point x="405" y="-173" type="curve"/>
      <point x="403" y="-226"/>
      <point x="393" y="-264"/>
      <point x="376" y="-283" type="curve"/>
      <point x="338" y="-258"/>
      <point x="281" y="-234"/>
      <point x="238" y="-234" type="curve" smooth="yes"/>
      <point x="185" y="-234"/>
      <point x="118" y="-283"/>
      <point x="55" y="-340" type="curve"/>
      <point x="68" y="-359" type="line"/>
      <point x="144" y="-309"/>
      <point x="196" y="-306"/>
      <point x="226" y="-306" type="curve" smooth="yes"/>
      <point x="277" y="-306"/>
      <point x="329" y="-341"/>
    </contour>
    <component base="Va" xOffset="47"/>
  </outline>
</glyph>
<glyph name="VocR.wide" format="2">
  <outline>
    <contour>
      <point x="-246" y="-220" type="curve" smooth="yes"/>
      <point x="-119" y="-220"/>
      <point x="-30" y="-103"/>
      <point x="-30" y="-54" type="curve" smooth="yes"/>
      <point x="-30" y="-32"/>
      <point x="-33" y="0"/>
      <point x="-37" y="21" type="curve"/>
      <point x="-116" y="7" type="line"/>
      <point x="-111" y="-15"/>
      <point x="-108" y="-46"/>
      <point x="-108" y="-57" type="curve" smooth="yes"/>
      <point x="-108" y="-109"/>
      <point x="-164" y="-155"/>
      <point x="-245" y="-155" type="curve" smooth="yes"/>
      <point x="-358" y="-155"/>
      <point x="-439" y="-47"/>
      <point x="-439" y="61" type="curve" smooth="yes"/>
      <point x="-439" y="93"/>
      <point x="-437" y="118"/>
      <point x="-421" y="154" type="curve"/>
      <point x="-451" y="164"/>
      <point x="-477" y="178"/>
      <point x="-499" y="196" type="curve"/>
      <point x="-511" y="160"/>
      <point x="-517" y="117"/>
      <point x="-517" y="80" type="curve" smooth="yes"/>
      <point x="-517" y="-58"/>
      <point x="-427" y="-220"/>
    </contour>
  </outline>
</glyph>
<glyph name="Vra" format="2">
  <advance width="733"/>
  <outline>
    <contour>
      <point x="340" y="-205" type="curve" smooth="yes"/>
      <point x="420" y="-205"/>
      <point x="482" y="-151"/>
      <point x="484" y="-90" type="curve" smooth="yes"/>
      <point x="485" y="-50"/>
      <point x="458" y="-6"/>
      <point x="409" y="26" type="curve"/>
      <point x="383" y="4"/>
      <point x="355" y="-15"/>
      <point x="323" y="-33" type="curve"/>
      <point x="351" y="-71" type="line"/>
      <point x="373" y="-62"/>
      <point x="413" y="-56"/>
      <point x="413" y="-89" type="curve" smooth="yes"/>
      <point x="413" y="-116"/>
      <point x="381" y="-135"/>
      <point x="345" y="-135" type="curve" smooth="yes"/>
      <point x="262" y="-135"/>
      <point x="108" y="-30"/>
      <point x="108" y="266" type="curve" smooth="yes"/>
      <point x="108" y="376"/>
      <point x="120" y="458"/>
      <point x="167" y="500" type="curve"/>
      <point x="131" y="519"/>
      <point x="99" y="540"/>
      <point x="74" y="565" type="curve"/>
      <point x="55" y="549"/>
      <point x="20" y="438"/>
      <point x="20" y="293" type="curve" smooth="yes"/>
      <point x="20" y="0"/>
      <point x="159" y="-205"/>
    </contour>
    <component base="Va" xOffset="190"/>
  </outline>
</glyph>
<glyph name="Vrr" format="2">
  <advance width="745"/>
  <outline>
    <contour>
      <point x="331" y="-184" type="curve" smooth="yes"/>
      <point x="451" y="-184"/>
      <point x="524" y="-103"/>
      <point x="524" y="-37" type="curve" smooth="yes"/>
      <point x="524" y="-6"/>
      <point x="508" y="16"/>
      <point x="493" y="31" type="curve"/>
      <point x="426" y="22" type="line"/>
      <point x="440" y="13"/>
      <point x="453" y="-6"/>
      <point x="453" y="-30" type="curve" smooth="yes"/>
      <point x="453" y="-74"/>
      <point x="408" y="-114"/>
      <point x="338" y="-114" type="curve" smooth="yes"/>
      <point x="259" y="-114"/>
      <point x="108" y="-49"/>
      <point x="108" y="277" type="curve" smooth="yes"/>
      <point x="108" y="387"/>
      <point x="120" y="479"/>
      <point x="167" y="521" type="curve"/>
      <point x="131" y="540"/>
      <point x="99" y="561"/>
      <point x="74" y="586" type="curve"/>
      <point x="56" y="551"/>
      <point x="20" y="449"/>
      <point x="20" y="304" type="curve" smooth="yes"/>
      <point x="20" y="-19"/>
      <point x="170" y="-184"/>
    </contour>
    <component base="Va" xOffset="202"/>
  </outline>
</glyph>
<glyph name="Ya.blw" format="2">
  <outline>
    <contour>
      <point x="-286" y="-239" type="curve" smooth="yes"/>
      <point x="-169" y="-239"/>
      <point x="-87" y="-172"/>
      <point x="-47" y="-123" type="curve"/>
      <point x="-78" y="-101" type="line"/>
      <point x="-124" y="-151"/>
      <point x="-194" y="-174"/>
      <point x="-282" y="-174" type="curve" smooth="yes"/>
      <point x="-358" y="-174"/>
      <point x="-431" y="-155"/>
      <point x="-431" y="-105" type="curve" smooth="yes"/>
      <point x="-431" y="-84"/>
      <point x="-419" y="-76"/>
      <point x="-405" y="-76" type="curve" smooth="yes"/>
      <point x="-386" y="-76"/>
      <point x="-359" y="-87"/>
      <point x="-330" y="-87" type="curve" smooth="yes"/>
      <point x="-286" y="-87"/>
      <point x="-227" y="-71"/>
      <point x="-227" y="-5" type="curve" smooth="yes"/>
      <point x="-227" y="4"/>
      <point x="-228" y="14"/>
      <point x="-230" y="24" type="curve"/>
      <point x="-305" y="31" type="line"/>
      <point x="-303" y="22"/>
      <point x="-302" y="14"/>
      <point x="-302" y="8" type="curve" smooth="yes"/>
      <point x="-302" y="-17"/>
      <point x="-318" y="-27"/>
      <point x="-339" y="-27" type="curve" smooth="yes"/>
      <point x="-362" y="-27"/>
      <point x="-392" y="-19"/>
      <point x="-413" y="-19" type="curve" smooth="yes"/>
      <point x="-442" y="-19"/>
      <point x="-506" y="-36"/>
      <point x="-506" y="-107" type="curve" smooth="yes"/>
      <point x="-506" y="-180"/>
      <point x="-437" y="-239"/>
    </contour>
  </outline>
</glyph>
